<?xml version="1.0" encoding="UTF-8" standalone="no"?>
<svg
   xmlns:dc="http://purl.org/dc/elements/1.1/"
   xmlns:cc="http://creativecommons.org/ns#"
   xmlns:rdf="http://www.w3.org/1999/02/22-rdf-syntax-ns#"
   xmlns:svg="http://www.w3.org/2000/svg"
   xmlns="http://www.w3.org/2000/svg"
   xmlns:sodipodi="http://sodipodi.sourceforge.net/DTD/sodipodi-0.dtd"
   xmlns:inkscape="http://www.inkscape.org/namespaces/inkscape"
   viewBox="0 0 30 30"
   version="1.1"
   id="svg36"
   sodipodi:docname="left_nogradient.svg"
   inkscape:version="0.92.2 5c3e80d, 2017-08-06"
   inkscape:export-filename="/home/noah/.local/share/yakuake/kns_skins/breeze_perfect_dark-no_gradient/title/left.png"
   inkscape:export-xdpi="96"
   inkscape:export-ydpi="96">
  <metadata
     id="metadata40">
    <rdf:RDF>
      <cc:Work
         rdf:about="">
        <dc:format>image/svg+xml</dc:format>
        <dc:type
           rdf:resource="http://purl.org/dc/dcmitype/StillImage" />
      </cc:Work>
    </rdf:RDF>
  </metadata>
  <sodipodi:namedview
     pagecolor="#ffffff"
     bordercolor="#666666"
     borderopacity="1"
     objecttolerance="10"
     gridtolerance="10"
     guidetolerance="10"
     inkscape:pageopacity="0"
     inkscape:pageshadow="2"
     inkscape:window-width="1860"
     inkscape:window-height="1051"
     id="namedview38"
     showgrid="false"
     inkscape:zoom="7.8666667"
     inkscape:cx="-32.79661"
     inkscape:cy="11.949153"
     inkscape:window-x="60"
     inkscape:window-y="0"
     inkscape:window-maximized="1"
     inkscape:current-layer="g34" />
  <defs
     id="defs10" />
  <g
     transform="translate(-553.72-583.12)"
     id="g34">
    <g
       color="#000"
       id="g18"
       style="fill:#31363b;fill-opacity:1"
       inkscape:export-xdpi="96"
       inkscape:export-ydpi="96">
      <path
         fill="url(#0)"
         d="m553.72 583.12h10v26h-10z"
         id="path12"
         style="fill:#31363b;fill-opacity:1" />
      <rect
         width="30"
         height="30"
         x="583.12"
         y="-583.72"
         rx="4"
         transform="matrix(0 1-1 0 0 0)"
         fill="url(#1)"
         id="rect14"
         style="fill:#31363b;fill-opacity:1" />
      <path
         fill="url(#3)"
         d="m573.72 583.12h10v30h-10z"
         id="path16"
         style="fill:#31363b;fill-opacity:1" />
    </g>
    <g
       transform="matrix(1.125 0 0 1.125 556.35-573.41)"
       fill="#f2f2f2"
       id="g32">
      <path
         d="m3 3v1 11 1 3h1 2 8 4 1v-15-1h-16m1 1h14v14h-4-8-2v-2-1-11"
         transform="translate(0 1030.36)"
         id="path22" />
      <path
         transform="matrix(.7071.70711.7071-.70711 0 0)"
         d="m740.39-731.9h3.243v1h-3.243z"
         id="path24" />
      <path
         transform="matrix(.7071-.70711.7071.70711 0 0)"
         d="m-734.44 742.92h3.243v1h-3.243z"
         id="path26" />
      <path
         d="m8.794 1042.86l.207-.207.207.207-.207.207z"
         fill-rule="evenodd"
         id="path28" />
      <path
         d="m10 1044.36h4v1h-4z"
         id="path30" />
    </g>
  </g>
</svg>
