<?xml version="1.0" encoding="UTF-8" standalone="no"?>
<svg
   xmlns:dc="http://purl.org/dc/elements/1.1/"
   xmlns:cc="http://creativecommons.org/ns#"
   xmlns:rdf="http://www.w3.org/1999/02/22-rdf-syntax-ns#"
   xmlns:svg="http://www.w3.org/2000/svg"
   xmlns="http://www.w3.org/2000/svg"
   xmlns:sodipodi="http://sodipodi.sourceforge.net/DTD/sodipodi-0.dtd"
   xmlns:inkscape="http://www.inkscape.org/namespaces/inkscape"
   viewBox="0 0 22 22"
   version="1.1"
   id="svg8"
   sodipodi:docname="quit_up.svg"
   inkscape:version="0.92.2 5c3e80d, 2017-08-06"
   inkscape:export-filename="/home/noah/.local/share/yakuake/kns_skins/yakuake-breeze_perfect_dark/title/quit_up.png"
   inkscape:export-xdpi="96"
   inkscape:export-ydpi="96"
   width="22"
   height="22">
  <metadata
     id="metadata14">
    <rdf:RDF>
      <cc:Work
         rdf:about="">
        <dc:format>image/svg+xml</dc:format>
        <dc:type
           rdf:resource="http://purl.org/dc/dcmitype/StillImage" />
        <dc:title></dc:title>
      </cc:Work>
    </rdf:RDF>
  </metadata>
  <defs
     id="defs12" />
  <sodipodi:namedview
     pagecolor="#ffffff"
     bordercolor="#666666"
     borderopacity="1"
     objecttolerance="10"
     gridtolerance="10"
     guidetolerance="10"
     inkscape:pageopacity="0"
     inkscape:pageshadow="2"
     inkscape:window-width="1860"
     inkscape:window-height="1051"
     id="namedview10"
     showgrid="true"
     inkscape:pagecheckerboard="true"
     inkscape:zoom="30.341309"
     inkscape:cx="8.550977"
     inkscape:cy="13.206574"
     inkscape:window-x="60"
     inkscape:window-y="0"
     inkscape:window-maximized="1"
     inkscape:current-layer="g6">
    <inkscape:grid
       type="xygrid"
       id="grid816" />
  </sodipodi:namedview>
  <g
     transform="translate(-421.71429,-525.79074)"
     id="g6">
    <path
       d="m 432.71429,527.79074 a 9,9.0000112 0 0 0 -9,9 9,9.0000112 0 0 0 9,9 9,9.0000112 0 0 0 9,-9 9,9.0000112 0 0 0 -9,-9 m -3.70459,4.5 3.70459,3.70459 3.70459,-3.70459 0.79541,0.79541 -3.70459,3.70459 3.70459,3.70459 -0.79541,0.79541 -3.70459,-3.70459 -3.70459,3.70459 -0.79541,-0.79541 3.70459,-3.70459 -3.70459,-3.70459 0.79541,-0.79541"
       style="fill:#fcfcfc;stroke-width:1.125"
       id="path4"
       inkscape:connector-curvature="0" />
  </g>
</svg>
