<?xml version="1.0" encoding="UTF-8" standalone="no"?>
<svg
   xmlns:dc="http://purl.org/dc/elements/1.1/"
   xmlns:cc="http://creativecommons.org/ns#"
   xmlns:rdf="http://www.w3.org/1999/02/22-rdf-syntax-ns#"
   xmlns:svg="http://www.w3.org/2000/svg"
   xmlns="http://www.w3.org/2000/svg"
   xmlns:sodipodi="http://sodipodi.sourceforge.net/DTD/sodipodi-0.dtd"
   xmlns:inkscape="http://www.inkscape.org/namespaces/inkscape"
   viewBox="0 0 30 30"
   version="1.1"
   id="svg24"
   sodipodi:docname="right-no_gradient-no_shadow-reverse.svg"
   inkscape:version="0.92.2 5c3e80d, 2017-08-06"
   inkscape:export-filename="/home/noah/.local/share/yakuake/kns_skins/breeze_perfect_dark-no_gradient/title/right.png"
   inkscape:export-xdpi="96"
   inkscape:export-ydpi="96">
  <metadata
     id="metadata28">
    <rdf:RDF>
      <cc:Work
         rdf:about="">
        <dc:format>image/svg+xml</dc:format>
        <dc:type
           rdf:resource="http://purl.org/dc/dcmitype/StillImage" />
      </cc:Work>
    </rdf:RDF>
  </metadata>
  <sodipodi:namedview
     pagecolor="#ffffff"
     bordercolor="#666666"
     borderopacity="1"
     objecttolerance="10"
     gridtolerance="10"
     guidetolerance="10"
     inkscape:pageopacity="0"
     inkscape:pageshadow="2"
     inkscape:window-width="1860"
     inkscape:window-height="1051"
     id="namedview26"
     showgrid="true"
     inkscape:zoom="31.466667"
     inkscape:cx="16.200099"
     inkscape:cy="7.6249932"
     inkscape:window-x="60"
     inkscape:window-y="0"
     inkscape:window-maximized="1"
     inkscape:current-layer="svg24">
    <inkscape:grid
       type="xygrid"
       id="grid843" />
  </sodipodi:namedview>
  <defs
     id="defs10" />
  <g
     transform="translate(-553.72,-583.12)"
     id="g18"
     style="color:#000000;fill:#31363b;fill-opacity:1">
    <path
       inkscape:connector-curvature="0"
       d="m 573.72,583.12 h 10 v 25 h -10 z"
       id="path12"
       style="fill:#31363b;fill-opacity:1" />
    <rect
       width="30"
       height="30"
       x="553.71997"
       y="583.12"
       rx="4"
       id="rect14"
       style="fill:#31363b;fill-opacity:1" />
    <path
       inkscape:connector-curvature="0"
       d="m 553.72,583.12 h 10 v 30 h -10 z"
       id="path16"
       style="fill:#31363b;fill-opacity:1" />
  </g>
  <g
     style="fill:#f2f2f2"
     transform="matrix(1.125,0,0,1.125,3.625,-1156.53)"
     id="g32">
    <path
       inkscape:connector-curvature="0"
       d="m 3,3 v 1 11 1 3 h 1 2 8 4 1 V 4 3 H 3 M 4,4 H 18 V 18 H 14 6 4 V 16 15 4"
       transform="translate(0,1030.36)"
       id="path22" />
    <path
       inkscape:connector-curvature="0"
       transform="matrix(0.7071,0.70711,0.7071,-0.70711,0,0)"
       d="m 740.39,-731.9 h 3.243 v 1 h -3.243 z"
       id="path24" />
    <path
       inkscape:connector-curvature="0"
       transform="matrix(0.7071,-0.70711,0.7071,0.70711,0,0)"
       d="m -734.44,742.92 h 3.243 v 1 h -3.243 z"
       id="path26" />
    <path
       style="fill-rule:evenodd"
       inkscape:connector-curvature="0"
       d="m 8.794,1042.86 0.207,-0.207 0.207,0.207 -0.207,0.207 z"
       id="path28" />
    <path
       inkscape:connector-curvature="0"
       d="m 10,1044.36 h 4 v 1 h -4 z"
       id="path30" />
  </g>
</svg>
