<svg height="28" width="28" xmlns="http://www.w3.org/2000/svg">
    <rect fill="#31363b" height="28" rx="3" width="28"/>
    <path d="M8 8v12h6v-1H9V9h3v2h7v3h1v-4h-3V8h-5zm9 7v2h-2v1h2v2h1v-2h2v-1h-2v-2z" fill="#eff0f1"/>
    <path d="M0 0v1h25c1.108 0 2 .892 2 2v22c0 .889.39 1.676 1 2.225V3c0-1.662-1.338-3-3-3z" fill="#616569"/>
    <path d="M3 0C1.338 0 0 1.338 0 3v22c0 1.662 1.338 3 3 3h22c1.662 0 3-1.338 3-3V3c0-1.662-1.338-3-3-3zm0 1h22c1.108 0 2 .892 2 2v22c0 1.108-.892 2-2 2H3c-1.108 0-2-.892-2-2V3c0-1.108.892-2 2-2z" fill="#3daee9"/>
</svg>
