<svg height="28" width="20" xmlns="http://www.w3.org/2000/svg">
    <path d="M0 0h20v28H0z" fill="#31363b" fill-rule="evenodd"/>
    <rect fill="#31363b" height="28" rx="3" transform="scale(-1)" width="20" x="-20" y="-28"/>
    <path d="M20 28v-1H3c-1.108 0-2-.892-2-2V3A2.98 2.98 0 0 0 0 .775V25c0 1.662 1.338 3 3 3z" fill="#616569"/>
    <path d="M17 28c1.662 0 3-1.338 3-3V3c0-1.662-1.338-3-3-3H3C1.338 0 0 1.338 0 3v22c0 1.662 1.338 3 3 3zm0-1H3c-1.108 0-2-.892-2-2V3c0-1.108.892-2 2-2h14c1.108 0 2 .892 2 2v22c0 1.108-.892 2-2 2z" fill="#3daee9"/>
    <path d="M10 8a6 6 0 0 0-6 6 6 6 0 0 0 6 6 6 6 0 0 0 6-6 6 6 0 0 0-6-6zm-2.293 3L10 13.293 12.293 11l.707.707L10.707 14 13 16.293l-.707.707L10 14.707 7.707 17 7 16.293 9.293 14 7 11.707z" fill="#da4453"/>
</svg>
